<mxfile host="app.diagrams.net" modified="2024-05-13T15:00:25.825Z" agent="Mozilla/5.0 (Windows NT 10.0; Win64; x64) AppleWebKit/537.36 (KHTML, like Gecko) Chrome/123.0.0.0 Safari/537.36 OPR/109.0.0.0" etag="HGsTSYXWpPPXngTkZMI5" version="24.4.0" type="device">
  <diagram name="PÃ¡gina-1" id="L4ZwUFBnozSiiw1Dxj5x">
    <mxGraphModel dx="1326" dy="270" grid="1" gridSize="10" guides="1" tooltips="1" connect="1" arrows="1" fold="1" page="1" pageScale="1" pageWidth="827" pageHeight="1169" math="0" shadow="0">
      <root>
        <mxCell id="0" />
        <mxCell id="1" parent="0" />
        <mxCell id="0pjWMFZU9KAOeosEaDaN-1" value="&amp;lt;&amp;lt;INTERFACE&amp;gt;&amp;gt;&lt;div&gt;AparelhoTelefonico&lt;/div&gt;" style="rounded=0;whiteSpace=wrap;html=1;spacing=4;spacingTop=-72;" vertex="1" parent="1">
          <mxGeometry x="-30" width="220" height="110" as="geometry" />
        </mxCell>
        <mxCell id="0pjWMFZU9KAOeosEaDaN-4" value="Iphone" style="rounded=0;whiteSpace=wrap;html=1;" vertex="1" parent="1">
          <mxGeometry x="260" y="340" width="120" height="60" as="geometry" />
        </mxCell>
        <mxCell id="0pjWMFZU9KAOeosEaDaN-5" value="" style="endArrow=classic;html=1;rounded=0;entryX=0.5;entryY=1;entryDx=0;entryDy=0;exitX=0.5;exitY=0;exitDx=0;exitDy=0;" edge="1" parent="1" source="0pjWMFZU9KAOeosEaDaN-4">
          <mxGeometry width="50" height="50" relative="1" as="geometry">
            <mxPoint x="510" y="320" as="sourcePoint" />
            <mxPoint x="600" y="110" as="targetPoint" />
          </mxGeometry>
        </mxCell>
        <mxCell id="0pjWMFZU9KAOeosEaDaN-6" value="" style="endArrow=classic;html=1;rounded=0;entryX=0.5;entryY=1;entryDx=0;entryDy=0;" edge="1" parent="1">
          <mxGeometry width="50" height="50" relative="1" as="geometry">
            <mxPoint x="320" y="340" as="sourcePoint" />
            <mxPoint x="320" y="110" as="targetPoint" />
          </mxGeometry>
        </mxCell>
        <mxCell id="0pjWMFZU9KAOeosEaDaN-7" value="" style="endArrow=classic;html=1;rounded=0;entryX=0.5;entryY=1;entryDx=0;entryDy=0;exitX=0.5;exitY=0;exitDx=0;exitDy=0;" edge="1" parent="1" source="0pjWMFZU9KAOeosEaDaN-4" target="0pjWMFZU9KAOeosEaDaN-1">
          <mxGeometry width="50" height="50" relative="1" as="geometry">
            <mxPoint x="340" y="360" as="sourcePoint" />
            <mxPoint x="620" y="130" as="targetPoint" />
          </mxGeometry>
        </mxCell>
        <mxCell id="0pjWMFZU9KAOeosEaDaN-8" value="" style="shape=link;html=1;rounded=0;entryX=1.002;entryY=0.366;entryDx=0;entryDy=0;entryPerimeter=0;exitX=0.005;exitY=0.363;exitDx=0;exitDy=0;exitPerimeter=0;" edge="1" parent="1" source="0pjWMFZU9KAOeosEaDaN-1" target="0pjWMFZU9KAOeosEaDaN-1">
          <mxGeometry width="100" relative="1" as="geometry">
            <mxPoint x="10" y="40" as="sourcePoint" />
            <mxPoint x="149.86" y="40.360000000000014" as="targetPoint" />
          </mxGeometry>
        </mxCell>
        <mxCell id="0pjWMFZU9KAOeosEaDaN-9" value="+&lt;span style=&quot;padding: 0px 0px 0px 2px;&quot;&gt;&lt;span style=&quot;font-family: Consolas; font-size: 10pt; white-space-collapse: preserve;&quot;&gt;&lt;span style=&quot;background-color: rgb(212, 212, 212);&quot;&gt;ligar&lt;/span&gt;() : void&lt;/span&gt;&lt;/span&gt;" style="edgeLabel;html=1;align=center;verticalAlign=middle;resizable=0;points=[];" vertex="1" connectable="0" parent="0pjWMFZU9KAOeosEaDaN-8">
          <mxGeometry x="-0.1329" y="-6" relative="1" as="geometry">
            <mxPoint x="9" y="14" as="offset" />
          </mxGeometry>
        </mxCell>
        <mxCell id="0pjWMFZU9KAOeosEaDaN-11" value="+&lt;span style=&quot;padding: 0px 0px 0px 2px;&quot;&gt;&lt;span style=&quot;padding: 0px 0px 0px 2px;&quot;&gt;&lt;span style=&quot;font-family: Consolas; font-size: 10pt; white-space-collapse: preserve;&quot;&gt;&lt;span style=&quot;background-color: rgb(212, 212, 212);&quot;&gt;atender&lt;/span&gt;()&lt;/span&gt;&lt;/span&gt;&lt;span style=&quot;font-family: Consolas; font-size: 10pt; white-space-collapse: preserve;&quot;&gt;&amp;nbsp;: void&lt;/span&gt;&lt;/span&gt;" style="edgeLabel;html=1;align=center;verticalAlign=middle;resizable=0;points=[];" vertex="1" connectable="0" parent="1">
          <mxGeometry x="79.99991098717905" y="79.99584976314574" as="geometry" />
        </mxCell>
        <mxCell id="0pjWMFZU9KAOeosEaDaN-12" value="+&lt;span style=&quot;padding: 0px 0px 0px 2px;&quot;&gt;&lt;span style=&quot;padding: 0px 0px 0px 2px;&quot;&gt;&lt;span style=&quot;font-family: Consolas; font-size: 10pt; white-space-collapse: preserve;&quot;&gt;iniciarCorreioVoz&lt;/span&gt;&lt;/span&gt;&lt;span style=&quot;font-family: Consolas; font-size: 10pt; white-space-collapse: preserve;&quot;&gt;() : void&lt;/span&gt;&lt;/span&gt;" style="edgeLabel;html=1;align=center;verticalAlign=middle;resizable=0;points=[];" vertex="1" connectable="0" parent="1">
          <mxGeometry x="79.99991098717905" y="99.99584976314574" as="geometry" />
        </mxCell>
        <mxCell id="0pjWMFZU9KAOeosEaDaN-13" value="&amp;lt;&amp;lt;INTERFACE&amp;gt;&amp;gt;&lt;div&gt;NavegadorInternet&lt;br&gt;&lt;/div&gt;" style="rounded=0;whiteSpace=wrap;html=1;spacing=4;spacingTop=-72;" vertex="1" parent="1">
          <mxGeometry x="210" width="220" height="110" as="geometry" />
        </mxCell>
        <mxCell id="0pjWMFZU9KAOeosEaDaN-14" value="" style="shape=link;html=1;rounded=0;entryX=1.002;entryY=0.366;entryDx=0;entryDy=0;entryPerimeter=0;exitX=0.005;exitY=0.363;exitDx=0;exitDy=0;exitPerimeter=0;" edge="1" parent="1">
          <mxGeometry width="100" relative="1" as="geometry">
            <mxPoint x="211" y="40" as="sourcePoint" />
            <mxPoint x="430" y="40" as="targetPoint" />
          </mxGeometry>
        </mxCell>
        <mxCell id="0pjWMFZU9KAOeosEaDaN-16" value="+&lt;span style=&quot;padding: 0px 0px 0px 2px;&quot;&gt;&lt;span style=&quot;padding: 0px 0px 0px 2px;&quot;&gt;&lt;span style=&quot;font-family: Consolas; font-size: 10pt; white-space-collapse: preserve;&quot;&gt;&lt;span style=&quot;background-color: rgb(212, 212, 212);&quot;&gt;exibirPagina&lt;/span&gt;&lt;/span&gt;&lt;/span&gt;&lt;span style=&quot;font-family: Consolas; font-size: 10pt; white-space-collapse: preserve;&quot;&gt;() : void&lt;/span&gt;&lt;/span&gt;" style="edgeLabel;html=1;align=center;verticalAlign=middle;resizable=0;points=[];" vertex="1" connectable="0" parent="1">
          <mxGeometry x="317.54086541000805" y="50.002921833923835" as="geometry" />
        </mxCell>
        <mxCell id="0pjWMFZU9KAOeosEaDaN-17" value="+&lt;span style=&quot;padding: 0px 0px 0px 2px;&quot;&gt;&lt;span style=&quot;padding: 0px 0px 0px 2px;&quot;&gt;&lt;span style=&quot;padding: 0px 0px 0px 2px;&quot;&gt;&lt;span style=&quot;font-family: Consolas; font-size: 10pt; white-space-collapse: preserve;&quot;&gt;adicionarNovaAba&lt;/span&gt;&lt;/span&gt;&lt;span style=&quot;font-family: Consolas; font-size: 10pt; white-space-collapse: preserve;&quot;&gt;()&lt;/span&gt;&lt;/span&gt;&lt;span style=&quot;font-family: Consolas; font-size: 10pt; white-space-collapse: preserve;&quot;&gt;&amp;nbsp;: void&lt;/span&gt;&lt;/span&gt;" style="edgeLabel;html=1;align=center;verticalAlign=middle;resizable=0;points=[];" vertex="1" connectable="0" parent="1">
          <mxGeometry x="322.44991098717907" y="69.92584976314575" as="geometry" />
        </mxCell>
        <mxCell id="0pjWMFZU9KAOeosEaDaN-18" value="+&lt;span style=&quot;padding: 0px 0px 0px 2px;&quot;&gt;&lt;span style=&quot;padding: 0px 0px 0px 2px;&quot;&gt;&lt;span style=&quot;font-family: Consolas; font-size: 10pt; white-space-collapse: preserve;&quot;&gt;atualizarPagina&lt;/span&gt;&lt;/span&gt;&lt;span style=&quot;font-family: Consolas; font-size: 10pt; white-space-collapse: preserve;&quot;&gt;() : void&lt;/span&gt;&lt;/span&gt;" style="edgeLabel;html=1;align=center;verticalAlign=middle;resizable=0;points=[];" vertex="1" connectable="0" parent="1">
          <mxGeometry x="322.44991098717907" y="89.92584976314575" as="geometry" />
        </mxCell>
        <mxCell id="0pjWMFZU9KAOeosEaDaN-19" value="&amp;lt;&amp;lt;INTERFACE&amp;gt;&amp;gt;&lt;div&gt;ReprodutorMusical&lt;br&gt;&lt;/div&gt;" style="rounded=0;whiteSpace=wrap;html=1;spacing=4;spacingTop=-72;" vertex="1" parent="1">
          <mxGeometry x="490" width="220" height="110" as="geometry" />
        </mxCell>
        <mxCell id="0pjWMFZU9KAOeosEaDaN-20" value="" style="shape=link;html=1;rounded=0;entryX=1.002;entryY=0.366;entryDx=0;entryDy=0;entryPerimeter=0;exitX=0.005;exitY=0.363;exitDx=0;exitDy=0;exitPerimeter=0;" edge="1" parent="1">
          <mxGeometry width="100" relative="1" as="geometry">
            <mxPoint x="491" y="40" as="sourcePoint" />
            <mxPoint x="710" y="40" as="targetPoint" />
          </mxGeometry>
        </mxCell>
        <mxCell id="0pjWMFZU9KAOeosEaDaN-22" value="+&lt;span style=&quot;padding: 0px 0px 0px 2px;&quot;&gt;&lt;span style=&quot;padding: 0px 0px 0px 2px;&quot;&gt;&lt;span style=&quot;padding: 0px 0px 0px 2px;&quot;&gt;&lt;span style=&quot;font-family: Consolas; font-size: 10pt; white-space-collapse: preserve;&quot;&gt;pausar&lt;/span&gt;&lt;/span&gt;&lt;span style=&quot;font-family: Consolas; font-size: 10pt; white-space-collapse: preserve;&quot;&gt;()&lt;/span&gt;&lt;/span&gt;&lt;span style=&quot;font-family: Consolas; font-size: 10pt; white-space-collapse: preserve;&quot;&gt;&amp;nbsp;: void&lt;/span&gt;&lt;/span&gt;" style="edgeLabel;html=1;align=center;verticalAlign=middle;resizable=0;points=[];" vertex="1" connectable="0" parent="1">
          <mxGeometry x="602.449910987179" y="69.92584976314575" as="geometry" />
        </mxCell>
        <mxCell id="0pjWMFZU9KAOeosEaDaN-23" value="+&lt;span style=&quot;padding: 0px 0px 0px 2px;&quot;&gt;&lt;span style=&quot;padding: 0px 0px 0px 2px;&quot;&gt;&lt;span style=&quot;font-family: Consolas; font-size: 10pt; white-space-collapse: preserve;&quot;&gt;selecionarMusica&lt;/span&gt;&lt;/span&gt;&lt;span style=&quot;font-family: Consolas; font-size: 10pt; white-space-collapse: preserve;&quot;&gt;() : void&lt;/span&gt;&lt;/span&gt;" style="edgeLabel;html=1;align=center;verticalAlign=middle;resizable=0;points=[];" vertex="1" connectable="0" parent="1">
          <mxGeometry x="602.449910987179" y="89.92584976314575" as="geometry" />
        </mxCell>
        <mxCell id="0pjWMFZU9KAOeosEaDaN-25" value="+ Tocar&lt;span style=&quot;padding: 0px 0px 0px 2px;&quot;&gt;&lt;span style=&quot;padding: 0px 0px 0px 2px;&quot;&gt;&lt;span style=&quot;font-family: Consolas; font-size: 10pt; white-space-collapse: preserve;&quot;&gt;()&lt;/span&gt;&lt;/span&gt;&lt;span style=&quot;font-family: Consolas; font-size: 10pt; white-space-collapse: preserve;&quot;&gt;&amp;nbsp;: void&lt;/span&gt;&lt;/span&gt;" style="edgeLabel;html=1;align=center;verticalAlign=middle;resizable=0;points=[];" vertex="1" connectable="0" parent="1">
          <mxGeometry x="602.449910987179" y="54.99584976314575" as="geometry" />
        </mxCell>
      </root>
    </mxGraphModel>
  </diagram>
</mxfile>
